<?xml version="1.0" encoding="utf-8"?>
<!-- Generator: Adobe Illustrator 23.1.0, SVG Export Plug-In . SVG Version: 6.00 Build 0)  -->
<svg version="1.1" id="Layer_1" xmlns="http://www.w3.org/2000/svg" xmlns:xlink="http://www.w3.org/1999/xlink" x="0px" y="0px"
	 viewBox="0 0 576 512" style="enable-background:new 0 0 576 512;" xml:space="preserve">
<style type="text/css">
	.st0{fill:#FFFFFF;}
</style>
<path class="st0" d="M528,32H144c-26.5,0-48,21.5-48,48v256c0,26.5,21.5,48,48,48h384c26.5,0,48-21.5,48-48V80
	C576,53.5,554.5,32,528,32z M223.1,96c17.7,0,32,14.3,32,32s-13.4,32-32,32c-17.7,0-32-14.3-32-32S206.3,96,223.1,96z M494.1,311.6
	c-2.8,5.2-8.2,8.4-14.1,8.4H192c-6,0-11.5-3.4-14.3-8.8c-2.7-5.4-2.2-11.8,1.3-16.7l70-96c3-4.2,7.8-6.6,12.9-6.6
	c5.1,0,9.9,2.4,12.9,6.6l22.4,30.7l62.7-94.1c2.1-4.4,7.1-7.1,13.3-7.1c5.3,0,10.3,2.7,13.3,7.1l106.7,160
	C496.6,300,496.9,306.3,494.1,311.6z M456,432H120c-39.7,0-72-32.3-72-72V120c0-13.2-10.8-24-24-24S0,106.8,0,120v240
	c0,66.2,53.8,120,120,120h336c13.3,0,24-10.8,24-24S469.3,432,456,432z"/>
</svg>
