<?xml version="1.0" encoding="utf-8"?>
<!-- Generator: Adobe Illustrator 16.0.0, SVG Export Plug-In . SVG Version: 6.00 Build 0)  -->
<!DOCTYPE svg PUBLIC "-//W3C//DTD SVG 1.1//EN" "http://www.w3.org/Graphics/SVG/1.1/DTD/svg11.dtd">
<svg version="1.1" id="Layer_1" xmlns="http://www.w3.org/2000/svg" xmlns:xlink="http://www.w3.org/1999/xlink" x="0px" y="0px"
	 width="612px" height="792px" viewBox="0 0 612 792" enable-background="new 0 0 612 792" xml:space="preserve">
<path fill="#F7BF31" d="M561,158H153c-28.156,0-51,22.844-51,51v272c0,28.156,22.844,51,51,51h408c28.156,0,51-22.844,51-51V209
	C612,180.844,589.156,158,561,158z M237.044,226c18.806,0,34,15.194,34,34s-14.238,34-34,34c-18.807,0-34-15.194-34-34
	S219.194,226,237.044,226z M524.981,455.075C522.006,460.6,516.269,464,510,464H204c-6.375,0-12.219-3.612-15.194-9.35
	c-2.868-5.738-2.337-12.538,1.382-17.744l74.375-102c3.188-4.462,8.287-7.013,13.706-7.013s10.519,2.55,13.706,7.013l23.8,32.619
	l66.619-99.981c2.231-4.675,7.544-7.544,14.131-7.544c5.631,0,10.943,2.869,14.131,7.544l113.369,170
	C527.637,442.75,527.956,449.443,524.981,455.075z M484.5,583h-357C85.319,583,51,548.682,51,506.5v-255
	c0-14.025-11.476-25.5-25.5-25.5C11.475,226,0,237.475,0,251.5v255C0,576.838,57.162,634,127.5,634h357
	c14.131,0,25.5-11.475,25.5-25.5S498.631,583,484.5,583z"/>
</svg>
