<?xml version="1.0" encoding="utf-8"?>
<!-- Generator: Adobe Illustrator 16.0.0, SVG Export Plug-In . SVG Version: 6.00 Build 0)  -->
<!DOCTYPE svg PUBLIC "-//W3C//DTD SVG 1.1//EN" "http://www.w3.org/Graphics/SVG/1.1/DTD/svg11.dtd">
<svg version="1.1" id="Layer_1" xmlns="http://www.w3.org/2000/svg" xmlns:xlink="http://www.w3.org/1999/xlink" x="0px" y="0px"
	 width="612px" height="792px" viewBox="0 0 612 792" enable-background="new 0 0 612 792" xml:space="preserve">
<path fill="#F7BF31" d="M105.188,147.375c15.897,0,28.688,12.909,28.688,28.688v57.375c0,15.897-12.79,28.688-28.688,28.688H47.813
	c-15.897,0-28.688-12.79-28.688-28.688v-57.375c0-15.897,12.909-28.688,28.688-28.688H105.188z M573.75,166.5
	c21.156,0,38.25,17.093,38.25,38.25S594.906,243,573.75,243H229.5c-21.157,0-38.25-17.093-38.25-38.25s17.093-38.25,38.25-38.25
	H573.75z M573.75,357.75c21.156,0,38.25,17.093,38.25,38.25s-17.094,38.25-38.25,38.25H229.5c-21.157,0-38.25-17.093-38.25-38.25
	s17.093-38.25,38.25-38.25H573.75z M573.75,549c21.156,0,38.25,17.093,38.25,38.25s-17.094,38.25-38.25,38.25H229.5
	c-21.157,0-38.25-17.093-38.25-38.25S208.343,549,229.5,549H573.75z M19.125,367.313c0-15.897,12.909-28.688,28.688-28.688h57.375
	c15.897,0,28.688,12.79,28.688,28.688v57.375c0,15.897-12.79,28.688-28.688,28.688H47.813c-15.897,0-28.688-12.79-28.688-28.688
	V367.313z M105.188,529.875c15.897,0,28.688,12.79,28.688,28.688v57.375c0,15.897-12.79,28.688-28.688,28.688H47.813
	c-15.897,0-28.688-12.79-28.688-28.688v-57.375c0-15.897,12.909-28.688,28.688-28.688H105.188z"/>
</svg>
