<?xml version="1.0" encoding="utf-8"?>
<!-- Generator: Adobe Illustrator 23.1.0, SVG Export Plug-In . SVG Version: 6.00 Build 0)  -->
<svg version="1.1" id="Layer_1" xmlns="http://www.w3.org/2000/svg" xmlns:xlink="http://www.w3.org/1999/xlink" x="0px" y="0px"
	 viewBox="0 0 512 512" style="enable-background:new 0 0 512 512;" xml:space="preserve">
<style type="text/css">
	.st0{fill:#FFFFFF;}
</style>
<path class="st0" d="M88,48c13.3,0,24,10.8,24,24v48c0,13.3-10.7,24-24,24H40c-13.3,0-24-10.7-24-24V72c0-13.3,10.8-24,24-24H88z
	 M480,64c17.7,0,32,14.3,32,32c0,17.7-14.3,32-32,32H192c-17.7,0-32-14.3-32-32c0-17.7,14.3-32,32-32H480z M480,224
	c17.7,0,32,14.3,32,32s-14.3,32-32,32H192c-17.7,0-32-14.3-32-32s14.3-32,32-32H480z M480,384c17.7,0,32,14.3,32,32s-14.3,32-32,32
	H192c-17.7,0-32-14.3-32-32s14.3-32,32-32H480z M16,232c0-13.3,10.8-24,24-24h48c13.3,0,24,10.7,24,24v48c0,13.3-10.7,24-24,24H40
	c-13.3,0-24-10.7-24-24V232z M88,368c13.3,0,24,10.7,24,24v48c0,13.3-10.7,24-24,24H40c-13.3,0-24-10.7-24-24v-48
	c0-13.3,10.8-24,24-24H88z"/>
</svg>
