<?xml version="1.0" encoding="utf-8"?>
<!-- Generator: Adobe Illustrator 23.1.0, SVG Export Plug-In . SVG Version: 6.00 Build 0)  -->
<svg version="1.1" id="Layer_1" xmlns="http://www.w3.org/2000/svg" xmlns:xlink="http://www.w3.org/1999/xlink" x="0px" y="0px"
	 viewBox="0 0 627 118" style="enable-background:new 0 0 627 118;" xml:space="preserve">
<style type="text/css">
	.st0{enable-background:new    ;}
	.st1{fill:none;stroke:#FFFFFF;stroke-miterlimit:10;}
</style>
<g class="st0">
	<path class="st1" d="M74.3,16.5c-2.5-4-5.9-7.1-10.3-9.3C59.8,5,54.9,4,49.6,4H33h-4.4H14.2v84.7H33V57.8h16.6
		c5.4,0,10.2-1.1,14.5-3.3c4.3-2.2,7.7-5.3,10.3-9.4c2.5-4,3.8-8.8,3.8-14.3S76.9,20.5,74.3,16.5z M57.7,37.6
		c-1.1,1.8-2.6,3.2-4.6,4.2s-4,1.4-6.4,1.4H33V18.6h13.8c2.3,0,4.4,0.5,6.4,1.4s3.4,2.4,4.6,4.2c1.1,1.8,1.7,4,1.7,6.6
		C59.4,33.5,58.8,35.7,57.7,37.6z"/>
	<path class="st1" d="M113.5,90c-6,0-11.4-1.3-16.3-4c-4.8-2.7-8.7-6.3-11.5-11c-2.8-4.6-4.2-9.8-4.2-15.6c0-5.8,1.4-10.9,4.2-15.5
		c2.8-4.6,6.6-8.2,11.4-10.9c4.8-2.7,10.2-4,16.3-4c6.1,0,11.5,1.3,16.3,4c4.8,2.6,8.6,6.3,11.4,10.9c2.8,4.6,4.2,9.8,4.2,15.5
		c0,5.8-1.4,11-4.2,15.6c-2.8,4.6-6.6,8.3-11.4,11C125,88.7,119.6,90,113.5,90z M113.5,73.3c2.6,0,5-0.6,7-1.7
		c2-1.2,3.5-2.8,4.6-4.9c1.1-2.1,1.6-4.5,1.6-7.3c0-2.7-0.6-5.1-1.7-7.1c-1.1-2-2.7-3.6-4.6-4.8c-2-1.2-4.3-1.7-6.9-1.7
		c-2.6,0-4.8,0.6-6.8,1.7c-2,1.2-3.6,2.8-4.7,4.9c-1.1,2.1-1.7,4.5-1.7,7.2c0,2.6,0.6,5,1.7,7.1c1.1,2.1,2.7,3.8,4.7,4.9
		C108.7,72.7,111,73.3,113.5,73.3z"/>
	<polygon class="st1" points="222.5,30.4 212.4,64.2 201.4,30.4 186.5,30.4 175.5,64.3 165.5,30.4 147.5,30.4 167.6,88.7 
		182.5,88.7 194,55.1 205.3,88.7 220.3,88.7 240.5,30.4 	"/>
	<path class="st1" d="M299.5,43.1c-2.5-4.4-6-7.8-10.4-10.3c-4.4-2.5-9.5-3.7-15.2-3.7c-5.9,0-11.2,1.3-16,4
		c-4.7,2.6-8.5,6.3-11.2,10.9c-2.8,4.6-4.1,9.8-4.1,15.7c0,5.8,1.4,11.1,4.2,15.7c2.8,4.6,6.7,8.3,11.6,10.9s10.5,3.9,16.9,3.9
		c4.9,0,9.4-0.8,13.4-2.5c4.1-1.7,7.6-4.2,10.4-7.6L289,69.8c-1.8,2-3.8,3.5-6.1,4.5c-2.3,1-4.9,1.5-7.8,1.5c-3.1,0-5.8-0.7-8.1-2
		c-2.3-1.3-4-3.2-5.3-5.6c-0.4-0.8-0.7-1.7-1-2.6l41.8-0.1c0.3-1.5,0.5-2.9,0.7-4c0.1-1.2,0.2-2.3,0.2-3.3
		C303.2,52.5,302,47.5,299.5,43.1z M266.5,45.1c2.1-1.3,4.6-2,7.5-2c2.7,0,5,0.6,6.9,1.7c1.9,1.2,3.3,2.8,4.3,5c0.4,0.9,0.7,2,1,3.1
		L260.7,53c0.2-0.8,0.5-1.6,0.9-2.4C262.7,48.2,264.3,46.4,266.5,45.1z"/>
	<path class="st1" d="M352.9,30.4c-2.1-0.8-4.6-1.3-7.4-1.3c-6.4,0-11.4,1.9-15,5.6v-4.4h-18.4v58.3h18.4v-32c0-3.8,0.9-6.6,2.7-8.5
		c1.8-1.9,4.2-2.8,7.3-2.8c1.5,0,2.9,0.2,4.1,0.7c1.2,0.5,2.2,1.2,3,2l10.9-13.8C356.8,32.6,355,31.3,352.9,30.4z"/>
	<polygon class="st1" points="432.1,30.4 422.1,64.2 411,30.4 396.1,30.4 385.1,64.3 375.1,30.4 357.1,30.4 377.3,88.7 392.2,88.7 
		403.7,55.1 415,88.7 430,88.7 450.1,30.4 	"/>
	<path class="st1" d="M547.1,40c-2-3.5-4.8-6.2-8.3-8c-3.5-1.9-7.5-2.8-11.9-2.8c-4.6,0-8.7,1-12.3,2.9c-2.4,1.3-4.5,3-6.3,5
		c-1.7-2.1-3.7-3.8-6-5.2c-3.2-1.8-6.9-2.8-11-2.8c-4.3,0-8.2,0.9-11.6,2.7c-1.5,0.8-2.9,1.7-4.1,2.8v-4.3h-18.4v58.3h18.4V54.6
		c0-2,0.4-3.7,1.3-5c0.8-1.4,2-2.4,3.4-3.2c1.4-0.8,3.1-1.1,4.9-1.1c2.6,0,4.9,0.8,6.7,2.5c1.8,1.6,2.7,3.9,2.7,6.9v34.1h18.4V54.6
		c0-2,0.4-3.7,1.3-5c0.8-1.4,2-2.4,3.4-3.2c1.4-0.8,3.1-1.1,4.9-1.1c2.6,0,4.9,0.8,6.7,2.5c1.8,1.6,2.7,3.9,2.7,6.9v34.1h18.4V52.6
		C550.2,47.7,549.2,43.5,547.1,40z"/>
	<path class="st1" d="M581.3,90c-5.4,0-10-1-14-2.9c-4-2-7.3-4.7-10.1-8.2l12.6-12.1c1.4,2,3.1,3.5,5.1,4.6c2,1,4.2,1.6,6.7,1.6
		c2.4,0,4.5-0.5,6.2-1.5c1.8-1,3.2-2.4,4.2-4.3c1-1.9,1.6-4.2,1.6-7V4h19v55c0,6.3-1.3,11.8-3.8,16.4c-2.6,4.6-6.2,8.2-10.8,10.8
		C593.2,88.7,587.7,90,581.3,90z"/>
</g>
</svg>
